<svg xmlns="http://www.w3.org/2000/svg" width="48" height="48" data-name="Layer 1" viewBox="0 0 48 48"><path d="M36.1,31.43a10.22,10.22,0,0,1-3.82,2.43c-.47.16-.88.26-1.35.41a9.17,9.17,0,0,1-2.11.26h-.21A10.3,10.3,0,0,1,22,32.16c-.26-.21-.52-.47-.77-.67L20.66,31l-1.19-1.19-3.25-3.25a1.22,1.22,0,0,1,0-1.7,1.11,1.11,0,0,1,.83-.37,1,1,0,0,1,.82.37l4.91,4.9a10.37,10.37,0,0,0,1.49,1.19,8,8,0,0,0,4.24,1.19,8.85,8.85,0,0,0,2-.26,8.33,8.33,0,0,0,1.19-.42,8.43,8.43,0,0,0,2.58-1.75A8.1,8.1,0,0,0,24,17.24a11.24,11.24,0,0,0-2.22-1.35A10.62,10.62,0,0,1,36,16.51,10.52,10.52,0,0,1,36.1,31.43Zm-18.64,3.1a8.37,8.37,0,0,1-6-2.63,8.57,8.57,0,0,1,6-14.61h.05a9.44,9.44,0,0,1,1.24.1,13,13,0,0,1,1.34.31,8.34,8.34,0,0,1,2.27,1.14,6.34,6.34,0,0,1,.93.77l.26.26.62.62,2.89,2.89a1.2,1.2,0,0,1,0,1.7,1.09,1.09,0,0,1-.82.37,1,1,0,0,1-.83-.37l-2.89-2.89-.62-.62c-.1-.1-.21-.15-.26-.25a6.07,6.07,0,0,0-2.89-1.4,4.36,4.36,0,0,0-1.14-.1h-.15a6.17,6.17,0,0,0-4.18,10.53,6,6,0,0,0,4.39,1.81h1.08l1,1a8.34,8.34,0,0,0,1.65,1.39ZM37.75,14.86a13,13,0,0,0-18.28,0l-.26.26a11,11,0,0,0-1.8-.16,10.8,10.8,0,0,0-7.75,3.26,10.95,10.95,0,0,0,7.75,18.69H28.87a12.8,12.8,0,0,0,8.93-3.77A13,13,0,0,0,37.75,14.86Z"/></svg>