<svg xmlns="http://www.w3.org/2000/svg" width="48" height="48" data-name="Layer 1" viewBox="0 0 48 48"><path d="M36.37 32.56a16.41 16.41 0 0 1-1.65 3 14.55 14.55 0 0 1-2.12 2.56 4.18 4.18 0 0 1-2.73 1.21 6.72 6.72 0 0 1-2.52-.61 7.25 7.25 0 0 0-2.71-.6 7.47 7.47 0 0 0-2.79.6 7.37 7.37 0 0 1-2.42.64 3.86 3.86 0 0 1-2.79-1.24 15.85 15.85 0 0 1-2.22-2.65 18.74 18.74 0 0 1-2.35-4.67 17.21 17.21 0 0 1-1-5.56 10.14 10.14 0 0 1 1.33-5.31 8 8 0 0 1 2.79-2.83A7.51 7.51 0 0 1 19 16a8.92 8.92 0 0 1 2.92.68 9.5 9.5 0 0 0 2.31.68 13.83 13.83 0 0 0 2.57-.8A8.44 8.44 0 0 1 30.28 16 7.41 7.41 0 0 1 36.09 19a6.44 6.44 0 0 0-3.43 5.86 6.45 6.45 0 0 0 2.13 4.88 7 7 0 0 0 2.12 1.39c-.17.5-.35 1-.54 1.42zM30.46 9.28a6.5 6.5 0 0 1-1.68 4.29A5.73 5.73 0 0 1 24 15.92a5.54 5.54 0 0 1 0-.59A6.71 6.71 0 0 1 25.78 11a6.91 6.91 0 0 1 2.16-1.63 6.63 6.63 0 0 1 2.48-.7 4.17 4.17 0 0 1 0 .61z"/></svg>