<svg xmlns="http://www.w3.org/2000/svg" width="48" height="48" data-name="Layer 1" viewBox="0 0 48 48"><path d="M37.1,15.14a3.39,3.39,0,1,0-4.32,3.23c-.33,5.11-6.63,5.53-8.6,5.53a10.42,10.42,0,0,0-8.7,4.81V15.85a3.39,3.39,0,1,0-1.65,0v16a.41.41,0,0,1,0,.09h0v1.83a3.39,3.39,0,1,0,1.65,0V32.46h0c.09-.28,2.29-6.76,8.66-6.76,4.92,0,10.15-1.94,10.41-7.32A3.39,3.39,0,0,0,37.1,15.14ZM12.93,12.58a1.73,1.73,0,1,1,1.73,1.73A1.72,1.72,0,0,1,12.93,12.58ZM16.38,37a1.73,1.73,0,1,1-1.72-1.72A1.73,1.73,0,0,1,16.38,37ZM33.71,16.86a1.73,1.73,0,1,1,1.73-1.72A1.72,1.72,0,0,1,33.71,16.86Z"/></svg>