<svg xmlns="http://www.w3.org/2000/svg" width="48" height="48" data-name="Layer 1" viewBox="0 0 48 48"><path d="M38.43,20l-4.7,2.87v-6l-2.66,1.71V27l-2.21,1.41L26.43,27V24.38l4.64-2.9-2.18-1.36-4.81,2.82-4.83-3-4.87,2.93L9.6,20,4.77,22.78v5.53L7.14,29.8l0-5.47,2.46-1.47,2.29,1.44,0,5.55,2.51-1.49,4.81,2.8L24,28.36l4.89,2.8,4.87-2.8,4.58,2.8,0-3L36.1,27l0-2.76,2.35-1.36,2.32,1.41v2.55l2.43-1.41v-2.6ZM21.62,27l-2.4,1.38L16.82,27V24.25l2.4-1.38,2.4,1.38Z"/><polygon points="37.13 24.76 37.13 26.28 38.45 27.04 39.76 26.28 39.76 24.76 38.45 24 37.13 24.76"/></svg>