<svg xmlns="http://www.w3.org/2000/svg" width="48" height="48" data-name="Layer 1" viewBox="0 0 48 48"><path d="M4.62,25a3.4,3.4,0,0,1,.21-1.24,2.8,2.8,0,0,1,.63-1,2.74,2.74,0,0,1,1-.66,3.17,3.17,0,0,1,1.2-.24,2.83,2.83,0,0,1,.9.15,2.39,2.39,0,0,1,.78.48V22h1.5v6H9.3v-.51a2.39,2.39,0,0,1-.78.48,2.83,2.83,0,0,1-.9.15,3,3,0,0,1-2.16-.9,2.8,2.8,0,0,1-.63-1A3.31,3.31,0,0,1,4.62,25ZM7.8,26.75a1.46,1.46,0,0,0,.36,0,1.94,1.94,0,0,0,.39-.12,2.74,2.74,0,0,0,.39-.24A4.07,4.07,0,0,0,9.3,26V24.14a1.82,1.82,0,0,0-.36-.37,1.7,1.7,0,0,0-.39-.24,1,1,0,0,0-.39-.12,1.46,1.46,0,0,0-.36,0,1.61,1.61,0,0,0-.66.12,1.3,1.3,0,0,0-.51.36,1.87,1.87,0,0,0-.36.55,2,2,0,0,0,0,1.38,1.7,1.7,0,0,0,.36.54,2,2,0,0,0,.51.36,1.61,1.61,0,0,0,.66.12Zm6.73-3.37a1.27,1.27,0,0,0-1.33,1.24V28H11.7V24.68a2.86,2.86,0,0,1,2.8-2.77h0a2.86,2.86,0,0,1,2.79,2.77V28h-1.5V24.62a1.26,1.26,0,0,0-1.32-1.24M18,25a3.4,3.4,0,0,1,.21-1.24,2.8,2.8,0,0,1,.63-1,2.74,2.74,0,0,1,1-.66,3.17,3.17,0,0,1,1.2-.24,2.83,2.83,0,0,1,.9.15,2.39,2.39,0,0,1,.78.48V20.23h1.51V28H22.72v-.51a2.39,2.39,0,0,1-.78.48,2.83,2.83,0,0,1-.9.15,3,3,0,0,1-2.16-.9,2.8,2.8,0,0,1-.63-1A3.31,3.31,0,0,1,18,25Zm3.18,1.71a1.46,1.46,0,0,0,.36,0A1.94,1.94,0,0,0,22,26.6a2.74,2.74,0,0,0,.39-.24,4.07,4.07,0,0,0,.36-.36V24.14a1.82,1.82,0,0,0-.36-.37,1.7,1.7,0,0,0-.39-.24,1,1,0,0,0-.39-.12,1.46,1.46,0,0,0-.36,0,1.61,1.61,0,0,0-.66.12,1.3,1.3,0,0,0-.51.36,1.87,1.87,0,0,0-.36.55,2,2,0,0,0,0,1.38,1.7,1.7,0,0,0,.36.54,2,2,0,0,0,.51.36,1.61,1.61,0,0,0,.66.12Zm10,0a1.5,1.5,0,0,0,1.14-.48,1.7,1.7,0,0,0,.36-.54,1.79,1.79,0,0,0-.36-1.93,2,2,0,0,0-.51-.36,1.48,1.48,0,0,0-.63-.12,1.5,1.5,0,0,0-1.14.48,1.9,1.9,0,0,0-.36,1.93,1.7,1.7,0,0,0,.36.54,2,2,0,0,0,.51.36A1.57,1.57,0,0,0,31.19,26.75Zm0,1.41A3.45,3.45,0,0,1,30,27.92a2.5,2.5,0,0,1-1-.66,2.94,2.94,0,0,1-.69-1A2.82,2.82,0,0,1,28,25a3.55,3.55,0,0,1,.24-1.24,2.94,2.94,0,0,1,.69-1,3.57,3.57,0,0,1,1-.66,3.33,3.33,0,0,1,1.23-.24,3.45,3.45,0,0,1,1.23.24,2.87,2.87,0,0,1,1,.66,2.94,2.94,0,0,1,.69,1A2.89,2.89,0,0,1,34.34,25a3.21,3.21,0,0,1-.24,1.23,2.94,2.94,0,0,1-.69,1,3.57,3.57,0,0,1-1,.66A3.33,3.33,0,0,1,31.19,28.16Zm4.57-6.61a1.08,1.08,0,0,1-.33-.06,1,1,0,0,1-.27-.18A.71.71,0,0,1,35,21a.65.65,0,0,1-.06-.33,1.08,1.08,0,0,1,.06-.33,2.64,2.64,0,0,1,.18-.3.71.71,0,0,1,.27-.18.65.65,0,0,1,.33-.06,1.08,1.08,0,0,1,.33.06,2.64,2.64,0,0,1,.3.18.62.62,0,0,1,.18.3.65.65,0,0,1,.06.33,1.08,1.08,0,0,1-.06.33,1,1,0,0,1-.18.27.62.62,0,0,1-.3.18A.65.65,0,0,1,35.76,21.55ZM35,22h1.5v6H35Zm2.19,3a3.4,3.4,0,0,1,.21-1.24,2.8,2.8,0,0,1,.63-1,2.74,2.74,0,0,1,1-.66,3.17,3.17,0,0,1,1.2-.24,2.83,2.83,0,0,1,.9.15,2.39,2.39,0,0,1,.78.48V20.23h1.5V28h-1.5v-.51a2.39,2.39,0,0,1-.78.48,2.83,2.83,0,0,1-.9.15,3,3,0,0,1-2.16-.9,2.8,2.8,0,0,1-.63-1A3.31,3.31,0,0,1,37.2,25Zm3.18,1.71a1.46,1.46,0,0,0,.36,0,1.94,1.94,0,0,0,.39-.12,2.74,2.74,0,0,0,.39-.24,4.07,4.07,0,0,0,.36-.36V24.14a1.82,1.82,0,0,0-.36-.37,1.7,1.7,0,0,0-.39-.24,1,1,0,0,0-.39-.12,1.46,1.46,0,0,0-.36,0,1.61,1.61,0,0,0-.66.12,1.3,1.3,0,0,0-.51.36,1.87,1.87,0,0,0-.36.55,2,2,0,0,0,0,1.38,1.7,1.7,0,0,0,.36.54,2,2,0,0,0,.51.36,1.61,1.61,0,0,0,.66.12ZM27.89,23.38c-1,0-1.44.51-1.44,1.24V28H25V24.68a2.65,2.65,0,0,1,2.94-2.8"/></svg>