<svg xmlns="http://www.w3.org/2000/svg" width="48" height="48" data-name="Layer 1" viewBox="0 0 48 48"><path d="M37.88,29.57c1.84-7.28-2.58-15.8-10.09-20.31,3.33,4.51,4.67,9.86,3.5,14.62a6.9,6.9,0,0,1-.42,1.26,96.11,96.11,0,0,1-16.1-13.21A94,94,0,0,0,24.2,23.8,105.27,105.27,0,0,1,10.76,13.6c.5.84,1.17,1.67,1.84,2.59,3.59,4.6,8.18,10.12,13.77,14.38-3.93,2.42-9.43,2.59-15,0a18.27,18.27,0,0,1-3.84-2.34A23,23,0,0,0,17.77,37c5.18,2.25,10.47,2.28,14.77-.34,1.84-.92,5.51-1.92,7.51,1.92.42,1.09,1.42-3.92-2.34-8.52.09-.17.09-.34.17-.5Z"/></svg>